HIERARCHY
ROOT Hips
{
  OFFSET 5.84602e-005 68.8428 3.50346
  CHANNELS 6 Xposition Yposition Zposition Zrotation Xrotation Yrotation
  JOINT Spine
  {
    OFFSET 0 8.597 -4.6522
    CHANNELS 3 Zrotation Xrotation Yrotation
    JOINT Spine1
    {
      OFFSET 0 7.8454 0.4098
      CHANNELS 3 Zrotation Xrotation Yrotation
      JOINT Spine2
      {
        OFFSET 0 9.7078 -2.1609
        CHANNELS 3 Zrotation Xrotation Yrotation
        JOINT Neck
        {
          OFFSET 0 21.8761 -0.4549
          CHANNELS 3 Zrotation Xrotation Yrotation
          JOINT Head
          {
            OFFSET 0 12.3537 3.3602
            CHANNELS 3 Zrotation Xrotation Yrotation
            End Site
            {
              OFFSET 0.0001 18.9506 0.5657
            }
          }
        }
        JOINT LeftShoulder
        {
          OFFSET 2.2086 21.1115 7.2329
          CHANNELS 3 Zrotation Xrotation Yrotation
          JOINT LeftArm
          {
            OFFSET 13.1193 3.0282 -4.8998
            CHANNELS 3 Zrotation Xrotation Yrotation
            JOINT LeftForeArm
            {
              OFFSET 27.4081 -0.0973053 -0.2375
              CHANNELS 3 Zrotation Xrotation Yrotation
              JOINT LeftHand
              {
                OFFSET 22.8641 0.0662994 -0.1369
                CHANNELS 3 Zrotation Xrotation Yrotation
                JOINT LeftHandIndex1
                {
                  OFFSET 8.8614 0.775009 2.4612
                  CHANNELS 3 Zrotation Xrotation Yrotation
                  JOINT LeftHandIndex2
                  {
                    OFFSET 3.3146 -0.808304 0.5841
                    CHANNELS 3 Zrotation Xrotation Yrotation
                    JOINT LeftHandIndex3
                    {
                      OFFSET 2.2628 -0.552002 0.3989
                      CHANNELS 3 Zrotation Xrotation Yrotation
                      End Site
                      {
                        OFFSET 1.6102 -0.4807 0.2612
                      }
                    }
                  }
                }
                JOINT LeftHandMiddle1
                {
                  OFFSET 8.9937 0.895004 0.2143
                  CHANNELS 3 Zrotation Xrotation Yrotation
                  JOINT LeftHandMiddle2
                  {
                    OFFSET 4.0984 0.0113983 -0.0242
                    CHANNELS 3 Zrotation Xrotation Yrotation
                    JOINT LeftHandMiddle3
                    {
                      OFFSET 2.2716 0.00689697 -0.0138001
                      CHANNELS 3 Zrotation Xrotation Yrotation
                      End Site
                      {
                        OFFSET 2.0404 -0.1441 0.0027
                      }
                    }
                  }
                }
                JOINT LeftHandRing1
                {
                  OFFSET 8.5234 0.597198 -2.0164
                  CHANNELS 3 Zrotation Xrotation Yrotation
                  JOINT LeftHandRing2
                  {
                    OFFSET 3.7188 -0.188293 -0.2328
                    CHANNELS 3 Zrotation Xrotation Yrotation
                    JOINT LeftHandRing3
                    {
                      OFFSET 2.1191 -0.106598 -0.1332
                      CHANNELS 3 Zrotation Xrotation Yrotation
                      End Site
                      {
                        OFFSET 1.8737 -0.2304 -0.0886
                      }
                    }
                  }
                }
                JOINT LeftHandPinky1
                {
                  OFFSET 7.9094 -0.601089 -3.4825
                  CHANNELS 3 Zrotation Xrotation Yrotation
                  JOINT LeftHandPinky2
                  {
                    OFFSET 2.2874 -0.477005 -0.6314
                    CHANNELS 3 Zrotation Xrotation Yrotation
                    JOINT LeftHandPinky3
                    {
                      OFFSET 1.6774 -0.349396 -0.4633
                      CHANNELS 3 Zrotation Xrotation Yrotation
                      End Site
                      {
                        OFFSET 1.4888 -0.4091 -0.3416
                      }
                    }
                  }
                }
                JOINT LeftHandThumb1
                {
                  OFFSET 1.833 -1.3875 1.3896
                  CHANNELS 3 Zrotation Xrotation Yrotation
                  JOINT LeftHandThumb2
                  {
                    OFFSET 3.4129 -1.121 2.5732
                    CHANNELS 3 Zrotation Xrotation Yrotation
                    JOINT LeftHandThumb3
                    {
                      OFFSET 2.2474 -0.804199 1.6192
                      CHANNELS 3 Zrotation Xrotation Yrotation
                      End Site
                      {
                        OFFSET 1.6527 -0.5689 1.1317
                      }
                    }
                  }
                }
              }
            }
          }
        }
        JOINT RightShoulder
        {
          OFFSET -2.2086 21.1115 7.2329
          CHANNELS 3 Zrotation Xrotation Yrotation
          JOINT RightArm
          {
            OFFSET -13.1216 3.0287 -4.9007
            CHANNELS 3 Zrotation Xrotation Yrotation
            JOINT RightForeArm
            {
              OFFSET -27.4081 -0.0973053 -0.2375
              CHANNELS 3 Zrotation Xrotation Yrotation
              JOINT RightHand
              {
                OFFSET -22.8641 0.0664063 -0.1369
                CHANNELS 3 Zrotation Xrotation Yrotation
                JOINT RightHandIndex1
                {
                  OFFSET -8.8614 0.774994 2.4612
                  CHANNELS 3 Zrotation Xrotation Yrotation
                  JOINT RightHandIndex2
                  {
                    OFFSET -3.3146 -0.808304 0.5841
                    CHANNELS 3 Zrotation Xrotation Yrotation
                    JOINT RightHandIndex3
                    {
                      OFFSET -2.2628 -0.552002 0.3989
                      CHANNELS 3 Zrotation Xrotation Yrotation
                      End Site
                      {
                        OFFSET -1.6102 -0.4807 0.2612
                      }
                    }
                  }
                }
                JOINT RightHandMiddle1
                {
                  OFFSET -8.9937 0.894989 0.2143
                  CHANNELS 3 Zrotation Xrotation Yrotation
                  JOINT RightHandMiddle2
                  {
                    OFFSET -4.0984 0.0113983 -0.0242
                    CHANNELS 3 Zrotation Xrotation Yrotation
                    JOINT RightHandMiddle3
                    {
                      OFFSET -2.2716 0.00691223 -0.0138001
                      CHANNELS 3 Zrotation Xrotation Yrotation
                      End Site
                      {
                        OFFSET -2.0404 -0.1441 0.0027
                      }
                    }
                  }
                }
                JOINT RightHandRing1
                {
                  OFFSET -8.5234 0.597198 -2.0164
                  CHANNELS 3 Zrotation Xrotation Yrotation
                  JOINT RightHandRing2
                  {
                    OFFSET -3.7188 -0.188309 -0.2328
                    CHANNELS 3 Zrotation Xrotation Yrotation
                    JOINT RightHandRing3
                    {
                      OFFSET -2.1191 -0.106598 -0.1332
                      CHANNELS 3 Zrotation Xrotation Yrotation
                      End Site
                      {
                        OFFSET -1.8737 -0.2304 -0.0886
                      }
                    }
                  }
                }
                JOINT RightHandPinky1
                {
                  OFFSET -7.9094 -0.601105 -3.4825
                  CHANNELS 3 Zrotation Xrotation Yrotation
                  JOINT RightHandPinky2
                  {
                    OFFSET -2.2874 -0.477005 -0.6314
                    CHANNELS 3 Zrotation Xrotation Yrotation
                    JOINT RightHandPinky3
                    {
                      OFFSET -1.6774 -0.349396 -0.4633
                      CHANNELS 3 Zrotation Xrotation Yrotation
                      End Site
                      {
                        OFFSET -1.4888 -0.4091 -0.3416
                      }
                    }
                  }
                }
                JOINT RightHandThumb1
                {
                  OFFSET -1.833 -1.38751 1.3896
                  CHANNELS 3 Zrotation Xrotation Yrotation
                  JOINT RightHandThumb2
                  {
                    OFFSET -3.41299 -1.12099 2.5732
                    CHANNELS 3 Zrotation Xrotation Yrotation
                    JOINT RightHandThumb3
                    {
                      OFFSET -2.24741 -0.804108 1.6192
                      CHANNELS 3 Zrotation Xrotation Yrotation
                      End Site
                      {
                        OFFSET -1.6527 -0.5689 1.1317
                      }
                    }
                  }
                }
              }
            }
          }
        }
      }
    }
  }
  JOINT RightUpLeg
  {
    OFFSET -9.1966 3.8861 -0.7581
    CHANNELS 3 Zrotation Xrotation Yrotation
    JOINT RightLeg
    {
      OFFSET -0.7359 -41.0265 0
      CHANNELS 3 Zrotation Xrotation Yrotation
      JOINT RightFoot
      {
        OFFSET 0 -40.2855 0
        CHANNELS 3 Zrotation Xrotation Yrotation
        JOINT RightToeBase
        {
          OFFSET 0 -5.6122 11.7359
          CHANNELS 3 Zrotation Xrotation Yrotation
          End Site
          {
            OFFSET 0 0 7.8731
          }
        }
      }
    }
  }
  JOINT LeftUpLeg
  {
    OFFSET 9.1965 3.8864 -0.7581
    CHANNELS 3 Zrotation Xrotation Yrotation
    JOINT LeftLeg
    {
      OFFSET 0.7359 -41.0268 0
      CHANNELS 3 Zrotation Xrotation Yrotation
      JOINT LeftFoot
      {
        OFFSET 0 -40.2855 0
        CHANNELS 3 Zrotation Xrotation Yrotation
        JOINT LeftToeBase
        {
          OFFSET 0 -5.6122 11.7359
          CHANNELS 3 Zrotation Xrotation Yrotation
          End Site
          {
            OFFSET 0 0 7.8731
          }
        }
      }
    }
  }
}
MOTION
Frames:	6
Frame Time:	0.0333333
1.01993 17.675 -3.97339 -6.64912e-015 2.99883 180 -0.308259 -3.65128 -0.546403 -0.653473 -7.29939 -1.11594 -0.653473 -7.29939 -1.11594 -1.41792e-005 -8.51213 -1.83521e-006 2.55641e-007 -9.12136 -1.37846e-007 -15.6705 1.80971 -16.4914 -135.33 -72.4573 -70.337 -3.15617 74.6918 2.14507 13.0939 -3.25023 23.0184 -1.19271e-015 1.19271e-015 6.36111e-015 -1.19271e-015 1.59028e-015 6.36111e-015 -9.93923e-016 0 9.54166e-015 -1.19271e-015 1.19271e-015 6.36111e-015 -0.0146055 -8.92629e-005 -3.24787e-006 3.97569e-016 -1.59028e-015 -6.36111e-015 -1.19271e-015 1.19271e-015 6.36111e-015 -0.018741 -0.00117659 6.02693e-005 -1.59028e-015 0 -0 -1.19271e-015 1.19271e-015 6.36111e-015 -0.0122409 -0.0032426 0.000673535 2.78299e-015 7.95139e-016 6.36111e-015 -1.19271e-015 1.19271e-015 6.36111e-015 -1.19271e-015 1.59028e-015 6.36111e-015 -9.93923e-016 0 9.54166e-015 -4.29467 -7.67126 -22.9951 -24.192 -63.5138 -82.8628 5.26134 74.0955 -2.05094 -46.4177 11.7001 3.65348 5.81108e-007 -1.5662e-006 3.16625e-007 5.81108e-007 -1.5662e-006 3.16625e-007 8.71662e-007 -2.34931e-006 4.74938e-007 5.81108e-007 -1.5662e-006 3.16625e-007 0.0149733 -9.28815e-005 1.21936e-006 8.71632e-007 -2.34924e-006 4.75244e-007 5.81108e-007 -1.5662e-006 3.16625e-007 0.0189891 -0.00119278 -6.65392e-005 8.7163e-007 -2.34922e-006 4.75318e-007 5.81108e-007 -1.5662e-006 3.16625e-007 0.0122447 -0.00324356 -0.000672329 8.71664e-007 -2.34924e-006 4.75166e-007 5.81108e-007 -1.5662e-006 3.16625e-007 5.81108e-007 -1.5662e-006 3.16625e-007 8.71662e-007 -2.34931e-006 4.74938e-007 -38.2478 -14.5526 45.5228 125.299 40.8674 -156.11 -20.9675 37.4077 64.8308 -2.91908e-006 2.31563e-007 1.35251e-006 40.4295 -14.5941 -46.1752 -123.017 41.5345 154.5 23.5996 37.6992 -67.868 -3.18055e-015 -3.18055e-015 3.18055e-015 
1.01987 17.8049 -4.04675 -6.64912e-015 2.99883 180 -0.308259 -3.65128 -0.546403 -0.653473 -7.29939 -1.11594 -0.653473 -7.29939 -1.11594 -1.0065e-005 -7.30727 2.35744e-006 6.21951e-008 -9.12135 -2.99083e-007 -15.5438 1.69092 -16.5197 -135.33 -72.4572 -70.337 -3.01581 74.6976 2.14609 12.7251 -3.25809 23.5934 -1.11802e-007 5.17397e-007 -6.61566e-007 -3.18055e-015 2.38542e-015 6.36111e-015 -4.77083e-015 3.97569e-016 6.36111e-015 -1.11802e-007 5.17397e-007 -6.61566e-007 -0.0145847 -8.86221e-005 -2.80129e-007 -5.56597e-015 7.95139e-016 -6.36111e-015 -1.11802e-007 5.17397e-007 -6.61566e-007 -0.0187183 -0.00117283 5.90585e-005 -7.95139e-016 1.19271e-015 -0 -1.11802e-007 5.17397e-007 -6.61566e-007 -0.0122731 -0.00325072 0.000675305 -9.93923e-016 -7.95139e-016 -6.36111e-015 -1.11802e-007 5.17397e-007 -6.61566e-007 -3.18055e-015 2.38542e-015 6.36111e-015 -4.77083e-015 3.97569e-016 6.36111e-015 -3.83984 -7.77412 -23.1796 -24.1975 -63.6259 -82.6811 5.27592 74.0467 -2.04363 -46.4176 11.7001 3.65348 -5.35988e-007 -1.00317e-006 -1.36304e-006 9.54166e-015 1.59028e-015 3.18055e-015 5.35988e-007 1.00317e-006 1.36304e-006 -5.35988e-007 -1.00317e-006 -1.36304e-006 0.0149937 -9.06715e-005 -2.5015e-006 5.34104e-007 1.00336e-006 1.36291e-006 -5.35988e-007 -1.00317e-006 -1.36304e-006 0.0189671 -0.00119012 -5.88446e-005 5.33617e-007 1.00355e-006 1.36288e-006 -5.35988e-007 -1.00317e-006 -1.36304e-006 0.0122825 -0.00325262 -0.000678042 5.34476e-007 1.00373e-006 1.363e-006 -5.35988e-007 -1.00317e-006 -1.36304e-006 9.54166e-015 1.59028e-015 3.18055e-015 5.35988e-007 1.00317e-006 1.36304e-006 -38.0333 -14.4918 45.5771 125.044 40.9325 -155.938 -20.8512 37.6126 64.6816 2.57967e-006 -5.12861e-007 -2.08387e-006 40.2049 -14.5403 -46.2334 -122.765 41.5933 154.329 23.4764 37.9165 -67.7143 -1.59028e-015 3.18055e-015 -6.36111e-015 
1.0198 17.9348 -4.12012 -6.64912e-015 2.99883 180 -0.308258 -3.65128 -0.546403 -0.653473 -7.29939 -1.11594 -0.653473 -7.29939 -1.11594 -1.64946e-006 -6.10023 -4.22597e-006 3.17021e-007 -9.12134 -1.76356e-008 -15.4171 1.57208 -16.5478 -135.33 -72.4572 -70.337 -2.87524 74.7029 2.1469 12.3565 -3.26967 24.1682 -1.08259e-007 5.18818e-007 -6.6149e-007 -1.08259e-007 5.18818e-007 -6.6149e-007 2.78299e-015 -7.95139e-016 -0 -1.08259e-007 5.18818e-007 -6.6149e-007 -0.0145784 -8.89405e-005 -2.75963e-006 -5.36719e-015 1.59028e-015 -3.18055e-015 -1.08259e-007 5.18818e-007 -6.6149e-007 -0.0187717 -0.00117549 5.83698e-005 8.82781e-032 1.59028e-015 -3.18055e-015 -1.08259e-007 5.18818e-007 -6.6149e-007 -0.0122731 -0.00324717 0.000677378 9.93923e-016 -2.38542e-015 -3.18055e-015 -1.08259e-007 5.18818e-007 -6.6149e-007 -1.08259e-007 5.18818e-007 -6.6149e-007 2.78299e-015 -7.95139e-016 -0 -3.38527 -7.87842 -23.3632 -24.2023 -63.738 -82.4986 5.28982 73.9976 -2.03632 -46.4177 11.7001 3.65347 -3.21272e-006 1.40274e-006 1.35872e-006 2.02295e-006 2.92481e-007 -4.97536e-006 -3.70959e-006 4.0172e-007 -7.59743e-009 -3.21272e-006 1.40274e-006 1.35872e-006 0.0149665 -8.91356e-005 -5.00715e-006 -3.70948e-006 4.01718e-007 -7.647e-009 -3.21272e-006 1.40274e-006 1.35872e-006 0.0190091 -0.00118995 -6.08404e-005 -3.21496e-006 1.40311e-006 1.35853e-006 -3.21272e-006 1.40274e-006 1.35872e-006 0.0122434 -0.00323942 -0.000674554 -3.7095e-006 4.01674e-007 -7.54018e-009 -3.21272e-006 1.40274e-006 1.35872e-006 2.02295e-006 2.92481e-007 -4.97536e-006 -3.70959e-006 4.0172e-007 -7.59743e-009 -37.819 -14.431 45.6312 124.788 40.997 -155.765 -20.7339 37.8172 64.5313 1.35611e-006 1.12169e-006 2.9174e-006 39.9803 -14.4863 -46.2913 -122.513 41.6514 154.158 23.352 38.1337 -67.5596 -3.41845e-007 2.80955e-007 -7.27918e-007 
1.01974 18.0647 -4.19349 -6.64912e-015 2.99883 180 -0.308259 -3.65128 -0.546403 -0.653473 -7.29939 -1.11594 -0.653473 -7.29939 -1.11594 -1.98307e-005 -4.89103 1.85091e-006 -4.37869e-008 -9.12135 -3.71713e-007 -15.2905 1.45318 -16.5756 -135.33 -72.4573 -70.337 -2.73472 74.7079 2.14777 11.9881 -3.28492 24.7429 -5.76476e-015 0 -0 -1.98785e-015 -1.19271e-015 -3.18055e-015 5.96354e-016 0 -3.18055e-015 -5.76476e-015 0 -0 -0.0145976 -8.83323e-005 -2.17e-006 -2.78299e-015 7.95139e-016 -3.18055e-015 -5.76476e-015 0 -0 -0.0187429 -0.0011747 5.99682e-005 -1.39149e-015 -2.38542e-015 -0 -5.76476e-015 0 -0 -0.0122722 -0.00325056 0.000677549 -1.98785e-016 -2.78299e-015 -3.18055e-015 -5.76476e-015 0 -0 -1.98785e-015 -1.19271e-015 -3.18055e-015 5.96354e-016 0 -3.18055e-015 -2.93098 -7.98413 -23.5461 -24.2062 -63.85 -82.3154 5.30306 73.9483 -2.02904 -46.4176 11.7001 3.65346 -4.13654e-006 8.4317e-007 1.58104e-006 1.85379e-006 -2.00262e-007 5.2652e-009 -4.41247e-006 4.52567e-006 6.99259e-007 -4.13654e-006 8.4317e-007 1.58104e-006 0.0149912 -9.01172e-005 2.54897e-006 -4.4142e-006 4.52577e-006 6.98671e-007 -4.13654e-006 8.4317e-007 1.58104e-006 0.0189899 -0.00119118 -6.04987e-005 -4.87003e-006 3.52668e-006 -6.71004e-007 -4.13654e-006 8.4317e-007 1.58104e-006 0.0122495 -0.00324113 -0.000670502 -4.87012e-006 3.52667e-006 -6.70716e-007 -4.13654e-006 8.4317e-007 1.58104e-006 1.85379e-006 -2.00262e-007 5.2652e-009 -4.41247e-006 4.52567e-006 6.99259e-007 -37.6049 -14.3701 45.6849 124.532 41.061 -155.593 -20.6156 38.0217 64.3801 2.23666e-006 2.51785e-007 1.50715e-006 39.7559 -14.4323 -46.3489 -122.26 41.7091 153.987 23.2265 38.3505 -67.4038 2.56839e-006 5.10495e-007 -2.09705e-006 
1.01967 18.1946 -4.26687 -6.64912e-015 2.99883 180 -0.308258 -3.65128 -0.546403 -0.653473 -7.29939 -1.11594 -0.653473 -7.29939 -1.11594 8.58373e-007 -3.68027 -7.04939e-006 1.99827e-007 -9.12135 -2.59906e-007 -15.164 1.33422 -16.6031 -135.33 -72.4573 -70.337 -2.59409 74.7125 2.14855 11.6199 -3.30385 25.3173 9.93923e-017 3.97569e-016 6.36111e-015 -2.98967e-007 1.70451e-006 -8.00902e-007 5.96354e-016 -1.19271e-015 -3.18055e-015 9.93923e-017 3.97569e-016 6.36111e-015 -0.0146211 -8.96276e-005 -3.09665e-006 -1.98785e-015 -1.59028e-015 -3.18055e-015 9.93923e-017 3.97569e-016 6.36111e-015 -0.0187675 -0.0011748 5.92974e-005 -1.31198e-014 -4.37326e-015 -0 9.93923e-017 3.97569e-016 6.36111e-015 -0.0122864 -0.00325089 0.000678394 -1.78906e-015 3.97569e-016 -0 9.93923e-017 3.97569e-016 6.36111e-015 -2.98967e-007 1.70451e-006 -8.00902e-007 5.96354e-016 -1.19271e-015 -3.18055e-015 -2.47699 -8.09128 -23.7282 -24.2093 -63.9621 -82.1315 5.31556 73.8988 -2.02171 -46.4176 11.7001 3.65348 -3.18055e-015 -1.59028e-015 1.27222e-014 -1.59028e-015 -4.77083e-015 6.36111e-015 -4.41391e-031 1.59028e-015 1.59028e-014 -3.18055e-015 -1.59028e-015 1.27222e-014 0.0150239 -9.12967e-005 1.15232e-006 7.07405e-007 2.15863e-007 1.54046e-006 -3.18055e-015 -1.59028e-015 1.27222e-014 0.019037 -0.00119169 -5.08544e-005 1.46697e-006 2.53643e-007 1.59035e-006 -3.18055e-015 -1.59028e-015 1.27222e-014 0.0122614 -0.00324662 -0.000674602 7.07796e-007 2.16229e-007 1.54053e-006 -3.18055e-015 -1.59028e-015 1.27222e-014 -1.59028e-015 -4.77083e-015 6.36111e-015 -4.41391e-031 1.59028e-015 1.59028e-014 -37.3908 -14.3091 45.7383 124.276 41.1243 -155.419 -20.4963 38.2258 64.228 6.36111e-015 6.36111e-015 -6.36111e-015 39.5317 -14.3781 -46.4062 -122.007 41.7662 153.815 23.0999 38.5672 -67.2468 -4.77083e-015 3.18055e-015 3.18055e-015 
1.0196 18.3245 -4.34024 -6.64912e-015 2.99883 180 -0.308258 -3.65128 -0.546403 -0.653473 -7.29939 -1.11594 -0.653473 -7.29939 -1.11594 4.3685e-006 -2.4679 -3.81186e-006 -1.73916e-007 -9.12134 1.95063e-007 -15.0376 1.2152 -16.6304 -135.33 -72.4572 -70.3369 -2.4534 74.7168 2.14926 11.2521 -3.32648 25.8914 1.91352e-007 -1.18413e-006 1.381e-007 2.80982e-007 -1.98334e-006 -1.56904e-006 1.91352e-007 -1.18413e-006 1.381e-007 1.91352e-007 -1.18413e-006 1.381e-007 -0.0146216 -8.96985e-005 -2.06515e-006 1.91353e-007 -1.18414e-006 1.37948e-007 1.91352e-007 -1.18413e-006 1.381e-007 -0.0187739 -0.00117868 5.60078e-005 1.91353e-007 -1.18415e-006 1.37904e-007 1.91352e-007 -1.18413e-006 1.381e-007 -0.0123081 -0.00325997 0.000677692 3.26422e-006 -6.46146e-007 4.96968e-008 1.91352e-007 -1.18413e-006 1.381e-007 2.80982e-007 -1.98334e-006 -1.56904e-006 1.91352e-007 -1.18413e-006 1.381e-007 -2.02332 -8.19982 -23.9093 -24.2116 -64.0742 -81.9469 5.32752 73.849 -2.01452 -46.4176 11.7001 3.65347 1.85176e-006 -1.99006e-007 8.21305e-009 1.85176e-006 -1.99006e-007 8.21307e-009 1.85176e-006 -1.99006e-007 8.21306e-009 1.85176e-006 -1.99006e-007 8.21305e-009 0.0149991 -9.0443e-005 2.0453e-006 1.85171e-006 -1.99005e-007 8.23764e-009 1.85176e-006 -1.99006e-007 8.21305e-009 0.0189773 -0.00118746 -5.48591e-005 1.85169e-006 -1.99e-007 8.22704e-009 1.85176e-006 -1.99006e-007 8.21305e-009 0.0122774 -0.00325178 -0.000682154 1.85172e-006 -1.98983e-007 8.18431e-009 1.85176e-006 -1.99006e-007 8.21305e-009 1.85176e-006 -1.99006e-007 8.21307e-009 1.85176e-006 -1.99006e-007 8.21306e-009 -37.1768 -14.2479 45.7912 124.019 41.1872 -155.246 -20.3759 38.4298 64.0747 -1.11272e-005 -1.254e-006 -1.01637e-006 39.3075 -14.3238 -46.4631 -121.753 41.8228 153.642 22.9722 38.7835 -67.0888 -1.70388e-006 2.74774e-007 6.75357e-007 
